HIERARCHY
ROOT Hips
{
  OFFSET 5.72205e-005 65.662 3.42586
  CHANNELS 6 Xposition Yposition Zposition Zrotation Xrotation Yrotation
  JOINT Chest
  {
    OFFSET 0 8.7983 -4.7612
    CHANNELS 3 Zrotation Xrotation Yrotation
    JOINT Chest2
    {
      OFFSET 0 8.0291 0.4195
      CHANNELS 3 Zrotation Xrotation Yrotation
      JOINT Chest3
      {
        OFFSET 0 9.9351 -2.2114
        CHANNELS 3 Zrotation Xrotation Yrotation
        JOINT Neck
        {
          OFFSET 0 22.3885 -0.4656
          CHANNELS 3 Zrotation Xrotation Yrotation
          JOINT Head
          {
            OFFSET -0.0001 12.643 3.4389
            CHANNELS 3 Zrotation Xrotation Yrotation
            End Site
            {
              OFFSET 0.0001 17.6655 0.5274
            }
          }
        }
        JOINT LeftCollar
        {
          OFFSET 2.2603 21.606 7.4023
          CHANNELS 3 Zrotation Xrotation Yrotation
          JOINT LeftShoulder
          {
            OFFSET 13.5163 -1.1332 -5.0146
            CHANNELS 3 Zrotation Xrotation Yrotation
            JOINT LeftElbow
            {
              OFFSET -0.0995 -28.05 -0.2431
              CHANNELS 3 Zrotation Xrotation Yrotation
              JOINT LeftWrist
              {
                OFFSET 0.0679 -23.3996 -0.1402
                CHANNELS 3 Zrotation Xrotation Yrotation
                JOINT LeftFinger1
                {
                  OFFSET 0.7932 -9.069 2.5189
                  CHANNELS 3 Zrotation Xrotation Yrotation
                  JOINT LeftFinger11
                  {
                    OFFSET -0.8272 -3.3923 0.5977
                    CHANNELS 3 Zrotation Xrotation Yrotation
                    JOINT LeftFinger12
                    {
                      OFFSET -0.5649 -2.3158 0.4082
                      CHANNELS 3 Zrotation Xrotation Yrotation
                      End Site
                      {
                        OFFSET -0.4919 -1.6479 0.2673
                      }
                    }
                  }
                }
                JOINT LeftFinger2
                {
                  OFFSET 0.9159 -9.2044 0.2193
                  CHANNELS 3 Zrotation Xrotation Yrotation
                  JOINT LeftFinger21
                  {
                    OFFSET 0.0117 -4.1944 -0.0248
                    CHANNELS 3 Zrotation Xrotation Yrotation
                    JOINT LeftFinger22
                    {
                      OFFSET 0.0071 -2.3249 -0.0142
                      CHANNELS 3 Zrotation Xrotation Yrotation
                      End Site
                      {
                        OFFSET -0.1475 -2.0882 0.0028
                      }
                    }
                  }
                }
                JOINT LeftFinger3
                {
                  OFFSET 0.6113 -8.7231 -2.0637
                  CHANNELS 3 Zrotation Xrotation Yrotation
                  JOINT LeftFinger31
                  {
                    OFFSET -0.1927 -3.8059 -0.2383
                    CHANNELS 3 Zrotation Xrotation Yrotation
                    JOINT LeftFinger32
                    {
                      OFFSET -0.1091 -2.1688 -0.1362
                      CHANNELS 3 Zrotation Xrotation Yrotation
                      End Site
                      {
                        OFFSET -0.2358 -1.9176 -0.0906
                      }
                    }
                  }
                }
                JOINT LeftFinger4
                {
                  OFFSET -0.6151 -8.0947 -3.5641
                  CHANNELS 3 Zrotation Xrotation Yrotation
                  JOINT LeftFinger41
                  {
                    OFFSET -0.4882 -2.341 -0.6462
                    CHANNELS 3 Zrotation Xrotation Yrotation
                    JOINT LeftFinger42
                    {
                      OFFSET -0.3575 -1.7167 -0.4742
                      CHANNELS 3 Zrotation Xrotation Yrotation
                      End Site
                      {
                        OFFSET -0.4187 -1.5237 -0.3496
                      }
                    }
                  }
                }
                JOINT LeftFinger0
                {
                  OFFSET -1.42 -1.8761 1.4223
                  CHANNELS 3 Zrotation Xrotation Yrotation
                  JOINT LeftFinger01
                  {
                    OFFSET -1.1471 -3.4929 2.6334
                    CHANNELS 3 Zrotation Xrotation Yrotation
                    JOINT LeftFinger02
                    {
                      OFFSET -0.823 -2.3 1.6571
                      CHANNELS 3 Zrotation Xrotation Yrotation
                      End Site
                      {
                        OFFSET -0.5822 -1.6914 1.1582
                      }
                    }
                  }
                }
              }
            }
          }
        }
        JOINT RightCollar
        {
          OFFSET -2.2603 21.606 7.4023
          CHANNELS 3 Zrotation Xrotation Yrotation
          JOINT RightShoulder
          {
            OFFSET -13.5187 -1.1334 -5.0155
            CHANNELS 3 Zrotation Xrotation Yrotation
            JOINT RightElbow
            {
              OFFSET 0.0994 -28.0499 -0.2431
              CHANNELS 3 Zrotation Xrotation Yrotation
              JOINT RightWrist
              {
                OFFSET -0.0679 -23.3996 -0.1402
                CHANNELS 3 Zrotation Xrotation Yrotation
                JOINT RightFinger1
                {
                  OFFSET -0.7932 -9.0691 2.5189
                  CHANNELS 3 Zrotation Xrotation Yrotation
                  JOINT RightFinger11
                  {
                    OFFSET 0.8272 -3.3923 0.5977
                    CHANNELS 3 Zrotation Xrotation Yrotation
                    JOINT RightFinger12
                    {
                      OFFSET 0.565 -2.3158 0.4082
                      CHANNELS 3 Zrotation Xrotation Yrotation
                      End Site
                      {
                        OFFSET 0.4919 -1.6479 0.2673
                      }
                    }
                  }
                }
                JOINT RightFinger2
                {
                  OFFSET -0.916 -9.2044 0.2193
                  CHANNELS 3 Zrotation Xrotation Yrotation
                  JOINT RightFinger21
                  {
                    OFFSET -0.0117 -4.1944 -0.0248
                    CHANNELS 3 Zrotation Xrotation Yrotation
                    JOINT RightFinger22
                    {
                      OFFSET -0.0071 -2.3249 -0.0142
                      CHANNELS 3 Zrotation Xrotation Yrotation
                      End Site
                      {
                        OFFSET 0.1475 -2.0882 0.0028
                      }
                    }
                  }
                }
                JOINT RightFinger3
                {
                  OFFSET -0.6113 -8.7231 -2.0637
                  CHANNELS 3 Zrotation Xrotation Yrotation
                  JOINT RightFinger31
                  {
                    OFFSET 0.1927 -3.8059 -0.2383
                    CHANNELS 3 Zrotation Xrotation Yrotation
                    JOINT RightFinger32
                    {
                      OFFSET 0.1091 -2.1688 -0.1362
                      CHANNELS 3 Zrotation Xrotation Yrotation
                      End Site
                      {
                        OFFSET 0.2358 -1.9176 -0.0906
                      }
                    }
                  }
                }
                JOINT RightFinger4
                {
                  OFFSET 0.6151 -8.0947 -3.564
                  CHANNELS 3 Zrotation Xrotation Yrotation
                  JOINT RightFinger41
                  {
                    OFFSET 0.4882 -2.341 -0.6462
                    CHANNELS 3 Zrotation Xrotation Yrotation
                    JOINT RightFinger42
                    {
                      OFFSET 0.3574 -1.7166 -0.4742
                      CHANNELS 3 Zrotation Xrotation Yrotation
                      End Site
                      {
                        OFFSET 0.4187 -1.5237 -0.3496
                      }
                    }
                  }
                }
                JOINT RightFinger0
                {
                  OFFSET 1.4199 -1.8761 1.4221
                  CHANNELS 3 Zrotation Xrotation Yrotation
                  JOINT RightFinger01
                  {
                    OFFSET 1.1472 -3.4929 2.6336
                    CHANNELS 3 Zrotation Xrotation Yrotation
                    JOINT RightFinger02
                    {
                      OFFSET 0.8229 -2.3 1.6571
                      CHANNELS 3 Zrotation Xrotation Yrotation
                      End Site
                      {
                        OFFSET 0.5822 -1.6914 1.1582
                      }
                    }
                  }
                }
              }
            }
          }
        }
      }
    }
  }
  JOINT RightHip
  {
    OFFSET -9.412 3.9771 -0.7758
    CHANNELS 3 Zrotation Xrotation Yrotation
    JOINT RightKnee
    {
      OFFSET -0.7531 -40.938 0
      CHANNELS 3 Zrotation Xrotation Yrotation
      JOINT RightAnkle
      {
        OFFSET 0 -40.1986 0
        CHANNELS 3 Zrotation Xrotation Yrotation
        JOINT RightToe
        {
          OFFSET 0 -4.4182 9.239
          CHANNELS 3 Zrotation Xrotation Yrotation
          End Site
          {
            OFFSET 0 0 6.1981
          }
        }
      }
    }
  }
  JOINT LeftHip
  {
    OFFSET 9.4119 3.9773 -0.7758
    CHANNELS 3 Zrotation Xrotation Yrotation
    JOINT LeftKnee
    {
      OFFSET 0.7532 -40.9383 0
      CHANNELS 3 Zrotation Xrotation Yrotation
      JOINT LeftAnkle
      {
        OFFSET 0 -40.1986 0
        CHANNELS 3 Zrotation Xrotation Yrotation
        JOINT LeftToe
        {
          OFFSET 0 -4.4182 9.239
          CHANNELS 3 Zrotation Xrotation Yrotation
          End Site
          {
            OFFSET 0 0 6.1981
          }
        }
      }
    }
  }
}
MOTION
Frames:	6
Frame Time:	0.0333333
0.242458 77.6148 8.95779 -180 -87.2657 -180 -0.0342641 4.4461 -0.11393 -0.0599012 8.89227 -0.22621 -0.0599012 8.89228 -0.226211 -9.05658 -6.26056 -0.996568 0.883793 -3.15092 -14.6529 -7.83426 29.0963 -11.9722 42.1832 -55.5308 37.1999 -19.9537 -25.9335 23.1169 -14.6418 -1.28692 -30.2608 8.12012e-006 -1.80633e-006 5.26086e-006 -6.36111e-015 9.54166e-015 3.18055e-015 -8.3767e-006 -5.66668e-007 -1.75014e-006 8.12012e-006 -1.80633e-006 5.26086e-006 -0.012826 0.00232734 8.74662e-005 -5.73466e-006 1.72135e-006 -3.07112e-006 8.12012e-006 -1.80633e-006 5.26086e-006 -0.0160269 0.00298932 0.000854604 -4.00929e-006 5.54995e-006 -7.77067e-007 8.12012e-006 -1.80633e-006 5.26086e-006 -0.0125407 0.00311128 0.0028126 -1.45223e-006 -1.99254e-006 2.41636e-006 8.12012e-006 -1.80633e-006 5.26086e-006 -6.36111e-015 9.54166e-015 3.18055e-015 -8.3767e-006 -5.66668e-007 -1.75014e-006 -23.144 2.79728 -4.32488 3.77994 42.5994 -25.9512 59.4796 -53.5293 92.3287 8.67551 10.9806 19.1538 2.38542e-015 1.59028e-015 -0 3.97569e-016 0 6.36111e-015 1.59028e-015 1.59028e-015 -0 2.38542e-015 1.59028e-015 -0 0.012969 0.00232236 -8.93971e-005 -1.71039e-030 7.95139e-015 1.23246e-014 2.38542e-015 1.59028e-015 -0 0.0163319 0.003042 -0.000872987 -3.25243e-007 7.70118e-007 2.07887e-006 2.38542e-015 1.59028e-015 -0 0.0145953 0.00368058 -0.0032516 4.33175e-006 -1.05433e-006 5.31353e-006 2.38542e-015 1.59028e-015 -0 3.97569e-016 0 6.36111e-015 1.59028e-015 1.59028e-015 -0 -9.64112 -13.9684 -7.27252 4.4694 47.5234 -4.00282 -11.3666 11.8068 4.16544 -3.18055e-015 -3.18055e-015 1.59028e-015 16.4029 0.774418 1.26987 -0.388234 15.8407 0.266271 8.19967 8.03256 -0.320713 -3.53689e-006 -5.98879e-007 4.01244e-007 
0.242258 77.7157 8.96987 180 -87.0402 -180 -0.0335883 4.41207 -0.113696 -0.058627 8.8242 -0.225798 -0.0586271 8.82421 -0.225798 -9.04344 -5.45721 -0.867952 0.880353 -3.21237 -14.7264 -7.92389 29.3948 -11.928 42.1833 -55.5306 37.2 -19.9538 -25.9335 23.1168 -14.6418 -1.28694 -30.2608 1.59028e-015 3.18055e-015 -3.18055e-015 4.77083e-015 -3.18055e-015 -3.18055e-015 -3.53113e-031 6.36111e-015 3.18055e-015 1.59028e-015 3.18055e-015 -3.18055e-015 -0.0128069 0.00232054 8.46157e-005 -7.95139e-015 6.36111e-015 -1.59028e-015 1.59028e-015 3.18055e-015 -3.18055e-015 -0.0160119 0.00299063 0.000854895 2.64834e-031 -9.54166e-015 1.59028e-015 1.59028e-015 3.18055e-015 -3.18055e-015 -0.0125971 0.00312464 0.0028241 3.58209e-006 -1.14407e-006 3.27874e-006 1.59028e-015 3.18055e-015 -3.18055e-015 4.77083e-015 -3.18055e-015 -3.18055e-015 -3.53113e-031 6.36111e-015 3.18055e-015 -23.849 2.63672 -4.38255 4.0042 42.966 -26.2142 59.87 -52.575 93.0609 8.55826 11.0535 18.7313 -3.97569e-016 1.59028e-015 -8.44835e-015 -7.95139e-016 1.59028e-015 4.17448e-015 -2.38542e-015 3.18055e-015 4.07509e-015 -3.97569e-016 1.59028e-015 -8.44835e-015 0.0129752 0.00231633 -8.60508e-005 1.15331e-007 -2.39564e-006 -7.65913e-006 -3.97569e-016 1.59028e-015 -8.44835e-015 0.0163966 0.00304513 -0.000882409 -1.66065e-006 -3.72174e-007 -3.85529e-007 -3.97569e-016 1.59028e-015 -8.44835e-015 0.0145963 0.00368738 -0.00326372 3.97569e-016 -3.18055e-015 -2.48481e-015 -3.97569e-016 1.59028e-015 -8.44835e-015 -7.95139e-016 1.59028e-015 4.17448e-015 -2.38542e-015 3.18055e-015 4.07509e-015 -9.65442 -13.6897 -7.29435 4.46939 47.5233 -4.00286 -11.3667 11.807 4.16545 -8.57785e-007 -1.37333e-006 2.12273e-006 16.4023 1.0147 1.26424 -0.388213 15.8421 0.266324 8.19982 8.03275 -0.320734 -4.77167e-007 7.47361e-006 -2.9612e-006 
0.242059 77.8165 8.98184 -180 -86.8147 -180 -0.0329118 4.3781 -0.113465 -0.0573505 8.75623 -0.22539 -0.0573507 8.75624 -0.225391 -9.03212 -4.65338 -0.739606 0.876827 -3.27386 -14.8 -8.01404 29.6931 -11.8832 42.1834 -55.5307 37.2 -19.9538 -25.9335 23.1169 -14.6418 -1.28693 -30.2608 -1.59028e-015 6.36111e-015 1.59028e-015 1.59028e-015 6.36111e-015 1.59028e-015 -1.59028e-015 9.54166e-015 -0 -1.59028e-015 6.36111e-015 1.59028e-015 -0.0128335 0.00233503 8.61275e-005 0 0 -3.18055e-015 -1.59028e-015 6.36111e-015 1.59028e-015 -0.0160713 0.00300761 0.000858453 2.39165e-006 -9.74097e-007 2.18145e-006 -1.59028e-015 6.36111e-015 1.59028e-015 -0.0125722 0.00311462 0.00282655 4.77083e-015 -1.27222e-014 -1.59028e-015 -1.59028e-015 6.36111e-015 1.59028e-015 1.59028e-015 6.36111e-015 1.59028e-015 -1.59028e-015 9.54166e-015 -0 -24.554 2.47675 -4.44225 4.23212 43.3318 -26.4808 60.2322 -51.6182 93.7666 8.44157 11.1271 18.309 -2.38542e-015 1.59028e-015 -2.18663e-015 -1.19271e-015 3.18055e-015 6.95746e-015 7.95139e-016 1.59028e-015 4.96962e-016 -2.38542e-015 1.59028e-015 -2.18663e-015 0.0129524 0.00231619 -8.85379e-005 2.24668e-006 4.22862e-006 -6.22663e-006 -2.38542e-015 1.59028e-015 -2.18663e-015 0.0163602 0.00304231 -0.000878899 -5.30901e-006 1.66582e-006 9.21921e-007 -2.38542e-015 1.59028e-015 -2.18663e-015 0.014647 0.00369811 -0.00328085 1.98785e-015 -3.18055e-015 4.87022e-015 -2.38542e-015 1.59028e-015 -2.18663e-015 -1.19271e-015 3.18055e-015 6.95746e-015 7.95139e-016 1.59028e-015 4.96962e-016 -9.66764 -13.4109 -7.31612 4.46942 47.5229 -4.00287 -11.3669 11.8072 4.16544 3.14095e-007 -2.63379e-008 8.819e-007 16.4018 1.25511 1.25863 -0.388225 15.8433 0.266341 8.19999 8.03299 -0.320726 -2.09262e-006 9.22597e-007 9.89931e-007 
0.24186 77.9172 8.9937 180 -86.5892 180 -0.0322339 4.3441 -0.113236 -0.0560715 8.68826 -0.224988 -0.0560717 8.68829 -0.224988 -9.0226 -3.84896 -0.611462 0.873229 -3.33536 -14.8736 -8.10472 29.9912 -11.8377 42.1833 -55.5307 37.2 -19.9538 -25.9335 23.1169 -14.6418 -1.28694 -30.2608 -1.15133e-006 5.77691e-006 1.2237e-006 -1.43802e-006 1.26959e-007 -3.49123e-006 9.54166e-015 6.36111e-015 3.18055e-015 -1.15133e-006 5.77691e-006 1.2237e-006 -0.0127649 0.0023131 8.52926e-005 -1.59028e-015 -3.18055e-015 -4.77083e-015 -1.15133e-006 5.77691e-006 1.2237e-006 -0.0160069 0.00298825 0.000852506 1.59028e-015 1.90833e-014 -1.59028e-015 -1.15133e-006 5.77691e-006 1.2237e-006 -0.0126144 0.00312978 0.00283351 -0 -1.27222e-014 -0 -1.15133e-006 5.77691e-006 1.2237e-006 -1.43802e-006 1.26959e-007 -3.49123e-006 9.54166e-015 6.36111e-015 3.18055e-015 -25.2588 2.31752 -4.50389 4.4636 43.6968 -26.7509 60.5683 -50.6592 94.4486 8.32549 11.2016 17.886 -1.06887e-005 -8.10867e-006 2.77509e-007 -3.52956e-006 1.73482e-006 -6.34989e-006 -2.38542e-015 -1.59028e-015 1.00386e-014 -1.06887e-005 -8.10867e-006 2.77509e-007 0.0129512 0.0023142 -9.46996e-005 -1.33209e-006 7.3538e-007 -2.46713e-006 -1.06887e-005 -8.10867e-006 2.77509e-007 0.0163175 0.00303403 -0.000878357 -7.95139e-016 0 -2.68359e-015 -1.06887e-005 -8.10867e-006 2.77509e-007 0.0145579 0.00367641 -0.00326258 -1.00345e-006 -1.1437e-006 -4.54818e-006 -1.06887e-005 -8.10867e-006 2.77509e-007 -3.52956e-006 1.73482e-006 -6.34989e-006 -2.38542e-015 -1.59028e-015 1.00386e-014 -9.6807 -13.1323 -7.33778 4.46939 47.5228 -4.00289 -11.3671 11.8075 4.16545 2.74299e-007 -2.1493e-006 -1.50135e-006 16.4013 1.4955 1.25303 -0.388208 15.8446 0.26638 8.20013 8.03319 -0.320748 -7.98184e-007 -6.61612e-007 -2.17059e-006 
0.24166 78.0179 9.00545 -180 -86.3637 -180 -0.0315551 4.31011 -0.11301 -0.0547902 8.62028 -0.224588 -0.0547902 8.62029 -0.224589 -9.0149 -3.04399 -0.48347 0.869547 -3.39677 -14.9471 -8.19594 30.2894 -11.7915 42.1832 -55.5308 37.1999 -19.9536 -25.9335 23.1169 -14.6418 -1.28693 -30.2608 8.45608e-006 2.79524e-006 3.99174e-006 1.59028e-015 6.36111e-015 -0 -1.59028e-015 6.36111e-015 -1.59028e-015 8.45608e-006 2.79524e-006 3.99174e-006 -0.0128671 0.00233365 8.4839e-005 -1.59028e-015 0 -1.59028e-015 8.45608e-006 2.79524e-006 3.99174e-006 -0.0160328 0.00298664 0.000857592 -6.36111e-015 0 1.59028e-015 8.45608e-006 2.79524e-006 3.99174e-006 -0.0124802 0.00309893 0.00280428 -7.95139e-015 3.18055e-015 1.59028e-015 8.45608e-006 2.79524e-006 3.99174e-006 1.59028e-015 6.36111e-015 -0 -1.59028e-015 6.36111e-015 -1.59028e-015 -25.9635 2.15922 -4.56743 4.69899 44.0609 -27.0248 60.8799 -49.6985 95.1074 8.20987 11.2769 17.4638 -2.38664e-006 -1.33767e-005 2.20717e-006 -1.19271e-015 0 -6.26172e-015 7.95139e-016 -1.59028e-015 -2.68359e-015 -2.38664e-006 -1.33767e-005 2.20717e-006 0.0129767 0.00232028 -7.93593e-005 -3.97569e-016 1.59028e-015 6.95746e-016 -2.38664e-006 -1.33767e-005 2.20717e-006 0.0163295 0.00304698 -0.000877665 -3.97569e-015 0 1.09332e-014 -2.38664e-006 -1.33767e-005 2.20717e-006 0.0145778 0.00369196 -0.00326303 -3.97569e-016 -1.59028e-015 2.5842e-015 -2.38664e-006 -1.33767e-005 2.20717e-006 -1.19271e-015 0 -6.26172e-015 7.95139e-016 -1.59028e-015 -2.68359e-015 -9.69362 -12.8541 -7.35935 4.46936 47.5231 -4.00299 -11.3673 11.8076 4.16545 3.12508e-007 -2.56236e-008 8.82254e-007 16.4008 1.73595 1.24741 -0.388212 15.8458 0.266433 8.20032 8.03342 -0.32076 -2.91393e-006 2.77391e-007 -2.08366e-006 
0.241462 78.1185 9.01709 180 -86.1383 180 -0.0308749 4.27608 -0.112785 -0.0535058 8.55229 -0.224192 -0.0535059 8.5523 -0.224193 -9.00899 -2.23852 -0.355601 0.865784 -3.45822 -15.0207 -8.28773 30.5875 -11.7446 42.1832 -55.5308 37.1999 -19.9537 -25.9335 23.1169 -14.6418 -1.28693 -30.2608 -1.59028e-015 -9.54166e-015 -4.77083e-015 3.18055e-015 3.18055e-015 4.77083e-015 -3.18055e-015 0 -3.18055e-015 -1.59028e-015 -9.54166e-015 -4.77083e-015 -0.0128078 0.00232715 8.15699e-005 -3.18055e-015 3.18055e-015 -0 -1.59028e-015 -9.54166e-015 -4.77083e-015 -0.015997 0.00298955 0.000859146 6.36111e-015 -1.27222e-014 1.59028e-015 -1.59028e-015 -9.54166e-015 -4.77083e-015 -0.0126565 0.00314779 0.0028383 1.46326e-005 -1.01453e-005 -1.44278e-006 -1.59028e-015 -9.54166e-015 -4.77083e-015 3.18055e-015 3.18055e-015 4.77083e-015 -3.18055e-015 0 -3.18055e-015 -26.6681 2.00178 -4.63286 4.93823 44.4242 -27.3023 61.1684 -48.7365 95.7449 8.09483 11.3531 17.0416 -3.97569e-016 1.59028e-015 6.55989e-015 2.98987e-006 -3.9803e-007 2.85877e-006 -3.46174e-006 2.6843e-006 -4.77103e-006 -3.97569e-016 1.59028e-015 6.55989e-015 0.0129461 0.00231068 -8.03545e-005 1.19271e-015 -1.59028e-015 4.77083e-015 -3.97569e-016 1.59028e-015 6.55989e-015 0.0163518 0.00302784 -0.000877694 -3.50752e-006 -9.11668e-006 5.30502e-006 -3.97569e-016 1.59028e-015 6.55989e-015 0.0146207 0.00368349 -0.00326623 -1.19271e-015 1.59028e-015 -3.18055e-015 -3.97569e-016 1.59028e-015 6.55989e-015 2.98987e-006 -3.9803e-007 2.85877e-006 -3.46174e-006 2.6843e-006 -4.77103e-006 -9.70638 -12.5754 -7.38083 4.46933 47.523 -4.00302 -11.3675 11.8078 4.16543 3.19326e-006 1.29314e-005 1.73322e-006 16.4003 1.97617 1.2418 -0.388204 15.8475 0.266462 8.20049 8.03343 -0.320727 -2.83828e-006 -4.11195e-006 -3.98339e-006 
